<svg xmlns="http://www.w3.org/2000/svg" viewBox="0 0 240 64" fill="none">
  <defs>
    <linearGradient id="helixGrad" x1="0%" y1="0%" x2="100%" y2="100%">
      <stop offset="0%" stop-color="#3b82f6"/>
      <stop offset="50%" stop-color="#7c3aed"/>
      <stop offset="100%" stop-color="#a78bfa"/>
    </linearGradient>
    <linearGradient id="textGrad" x1="0%" y1="0%" x2="100%" y2="0%">
      <stop offset="0%" stop-color="#f8fafc"/>
      <stop offset="100%" stop-color="#a78bfa"/>
    </linearGradient>
  </defs>
  <rect width="64" height="64" rx="14" fill="#0a0f1d"/>
  <rect x="12" y="10" width="5" height="44" rx="2.5" fill="url(#helixGrad)"/>
  <rect x="47" y="10" width="5" height="44" rx="2.5" fill="url(#helixGrad)"/>
  <g stroke="#f8fafc" stroke-width="2" stroke-linecap="round" opacity="0.85">
    <line x1="17" y1="19" x2="47" y2="27"/>
    <line x1="47" y1="19" x2="17" y2="27"/>
    <line x1="17" y1="31" x2="47" y2="39"/>
    <line x1="47" y1="31" x2="17" y2="39"/>
    <line x1="17" y1="43" x2="47" y2="51"/>
    <line x1="47" y1="43" x2="17" y2="51"/>
  </g>
  <circle cx="17" cy="19" r="2" fill="#a78bfa"/>
  <circle cx="47" cy="19" r="2" fill="#3b82f6"/>
  <circle cx="17" cy="31" r="2" fill="#7c3aed"/>
  <circle cx="47" cy="31" r="2" fill="#a78bfa"/>
  <circle cx="17" cy="43" r="2" fill="#3b82f6"/>
  <circle cx="47" cy="43" r="2" fill="#7c3aed"/>
  <text x="80" y="42" font-family="system-ui, -apple-system, 'Segoe UI', sans-serif" font-size="28" font-weight="700" letter-spacing="0.08em" fill="url(#textGrad)">HELIX</text>
</svg>
